<mxfile host="Electron" agent="Mozilla/5.0 (Windows NT 10.0; Win64; x64) AppleWebKit/537.36 (KHTML, like Gecko) draw.io/25.0.2 Chrome/128.0.6613.186 Electron/32.2.5 Safari/537.36" version="25.0.2" pages="2">
  <diagram name="Página-1" id="OR4TdcYiKhtKHPCHXBGu">
    <mxGraphModel dx="1276" dy="1783" grid="1" gridSize="10" guides="1" tooltips="1" connect="1" arrows="1" fold="1" page="1" pageScale="1" pageWidth="827" pageHeight="1169" background="none" math="0" shadow="1">
      <root>
        <mxCell id="0" />
        <mxCell id="1" parent="0" />
        <mxCell id="g5JvH7xUqgwqa8n8HzxO-1" value="INÍCIO" style="rounded=1;whiteSpace=wrap;html=1;" vertex="1" parent="1">
          <mxGeometry x="510" y="-130" width="120" height="60" as="geometry" />
        </mxCell>
        <mxCell id="g5JvH7xUqgwqa8n8HzxO-35" style="edgeStyle=orthogonalEdgeStyle;rounded=0;orthogonalLoop=1;jettySize=auto;html=1;" edge="1" parent="1" source="g5JvH7xUqgwqa8n8HzxO-3">
          <mxGeometry relative="1" as="geometry">
            <mxPoint x="562.5" y="-60" as="targetPoint" />
          </mxGeometry>
        </mxCell>
        <mxCell id="g5JvH7xUqgwqa8n8HzxO-3" value="RECEBER VALOR 1 2 E 3" style="shape=manualInput;whiteSpace=wrap;html=1;" vertex="1" parent="1">
          <mxGeometry x="507.5" y="20" width="110" height="80" as="geometry" />
        </mxCell>
        <mxCell id="g5JvH7xUqgwqa8n8HzxO-9" style="edgeStyle=orthogonalEdgeStyle;rounded=0;orthogonalLoop=1;jettySize=auto;html=1;" edge="1" parent="1" source="g5JvH7xUqgwqa8n8HzxO-6" target="g5JvH7xUqgwqa8n8HzxO-10">
          <mxGeometry relative="1" as="geometry">
            <mxPoint x="679.9999999999998" y="510" as="targetPoint" />
          </mxGeometry>
        </mxCell>
        <mxCell id="g5JvH7xUqgwqa8n8HzxO-14" style="edgeStyle=orthogonalEdgeStyle;rounded=0;orthogonalLoop=1;jettySize=auto;html=1;" edge="1" parent="1" source="g5JvH7xUqgwqa8n8HzxO-6">
          <mxGeometry relative="1" as="geometry">
            <mxPoint x="460" y="510" as="targetPoint" />
          </mxGeometry>
        </mxCell>
        <mxCell id="g5JvH7xUqgwqa8n8HzxO-6" value="VALOR 1 &amp;gt; VALOR 2&amp;nbsp;&lt;div&gt;E&lt;/div&gt;&lt;div&gt;VALOR 1 &amp;gt; VALOR 3&lt;span style=&quot;background-color: initial;&quot;&gt;&amp;nbsp;&lt;/span&gt;&lt;/div&gt;" style="rhombus;whiteSpace=wrap;html=1;" vertex="1" parent="1">
          <mxGeometry x="512.5" y="470" width="105" height="120" as="geometry" />
        </mxCell>
        <mxCell id="g5JvH7xUqgwqa8n8HzxO-12" style="edgeStyle=orthogonalEdgeStyle;rounded=0;orthogonalLoop=1;jettySize=auto;html=1;" edge="1" parent="1" source="g5JvH7xUqgwqa8n8HzxO-10" target="g5JvH7xUqgwqa8n8HzxO-13">
          <mxGeometry relative="1" as="geometry">
            <mxPoint x="689.9999999999998" y="630" as="targetPoint" />
          </mxGeometry>
        </mxCell>
        <mxCell id="g5JvH7xUqgwqa8n8HzxO-16" style="edgeStyle=orthogonalEdgeStyle;rounded=0;orthogonalLoop=1;jettySize=auto;html=1;" edge="1" parent="1" source="g5JvH7xUqgwqa8n8HzxO-10">
          <mxGeometry relative="1" as="geometry">
            <mxPoint x="739.9999999999998" y="370" as="targetPoint" />
          </mxGeometry>
        </mxCell>
        <mxCell id="g5JvH7xUqgwqa8n8HzxO-10" value="VALOR 2 &amp;gt; VALOR 1&lt;div&gt;E&lt;/div&gt;&lt;div&gt;VALOR 2 &amp;gt; VALOR 3&lt;/div&gt;" style="rhombus;whiteSpace=wrap;html=1;" vertex="1" parent="1">
          <mxGeometry x="680" y="440" width="120" height="100" as="geometry" />
        </mxCell>
        <mxCell id="g5JvH7xUqgwqa8n8HzxO-18" style="edgeStyle=orthogonalEdgeStyle;rounded=0;orthogonalLoop=1;jettySize=auto;html=1;" edge="1" parent="1" source="g5JvH7xUqgwqa8n8HzxO-13" target="g5JvH7xUqgwqa8n8HzxO-19">
          <mxGeometry relative="1" as="geometry">
            <mxPoint x="739.9999999999998" y="790" as="targetPoint" />
          </mxGeometry>
        </mxCell>
        <mxCell id="g5JvH7xUqgwqa8n8HzxO-13" value="VALOR 3 &amp;gt; VALOR 1&amp;nbsp;&lt;div&gt;E&lt;/div&gt;&lt;div&gt;VALOR 3 &amp;gt; VALOR 2&lt;/div&gt;" style="rhombus;whiteSpace=wrap;html=1;" vertex="1" parent="1">
          <mxGeometry x="675" y="610" width="130" height="110" as="geometry" />
        </mxCell>
        <mxCell id="g5JvH7xUqgwqa8n8HzxO-23" style="edgeStyle=orthogonalEdgeStyle;rounded=0;orthogonalLoop=1;jettySize=auto;html=1;entryX=0;entryY=0.5;entryDx=0;entryDy=0;" edge="1" parent="1" source="g5JvH7xUqgwqa8n8HzxO-15" target="g5JvH7xUqgwqa8n8HzxO-21">
          <mxGeometry relative="1" as="geometry" />
        </mxCell>
        <mxCell id="g5JvH7xUqgwqa8n8HzxO-15" value="VALOR 1 É O MAIOR NÚMERO" style="shape=document;whiteSpace=wrap;html=1;boundedLbl=1;" vertex="1" parent="1">
          <mxGeometry x="340" y="480" width="120" height="80" as="geometry" />
        </mxCell>
        <mxCell id="g5JvH7xUqgwqa8n8HzxO-22" style="edgeStyle=orthogonalEdgeStyle;rounded=0;orthogonalLoop=1;jettySize=auto;html=1;" edge="1" parent="1" source="g5JvH7xUqgwqa8n8HzxO-17">
          <mxGeometry relative="1" as="geometry">
            <mxPoint x="570" y="780" as="targetPoint" />
            <Array as="points">
              <mxPoint x="640" y="330" />
              <mxPoint x="640" y="780" />
            </Array>
          </mxGeometry>
        </mxCell>
        <mxCell id="g5JvH7xUqgwqa8n8HzxO-17" value="VALOR 2 É O MAIOR NÚMERO" style="shape=document;whiteSpace=wrap;html=1;boundedLbl=1;" vertex="1" parent="1">
          <mxGeometry x="680" y="290" width="120" height="80" as="geometry" />
        </mxCell>
        <mxCell id="g5JvH7xUqgwqa8n8HzxO-20" style="edgeStyle=orthogonalEdgeStyle;rounded=0;orthogonalLoop=1;jettySize=auto;html=1;" edge="1" parent="1" source="g5JvH7xUqgwqa8n8HzxO-19">
          <mxGeometry relative="1" as="geometry">
            <mxPoint x="570" y="790" as="targetPoint" />
          </mxGeometry>
        </mxCell>
        <mxCell id="g5JvH7xUqgwqa8n8HzxO-19" value="VALOR 3 É O MAIOR NÚMERO" style="shape=document;whiteSpace=wrap;html=1;boundedLbl=1;" vertex="1" parent="1">
          <mxGeometry x="679.9999999999998" y="750" width="120" height="80" as="geometry" />
        </mxCell>
        <mxCell id="g5JvH7xUqgwqa8n8HzxO-21" value="FIM" style="rounded=1;whiteSpace=wrap;html=1;" vertex="1" parent="1">
          <mxGeometry x="450" y="760" width="120" height="60" as="geometry" />
        </mxCell>
        <mxCell id="g5JvH7xUqgwqa8n8HzxO-34" style="edgeStyle=orthogonalEdgeStyle;rounded=0;orthogonalLoop=1;jettySize=auto;html=1;" edge="1" parent="1" source="g5JvH7xUqgwqa8n8HzxO-24">
          <mxGeometry relative="1" as="geometry">
            <mxPoint x="540" y="110" as="targetPoint" />
          </mxGeometry>
        </mxCell>
        <mxCell id="g5JvH7xUqgwqa8n8HzxO-36" style="edgeStyle=orthogonalEdgeStyle;rounded=0;orthogonalLoop=1;jettySize=auto;html=1;entryX=0;entryY=0.5;entryDx=0;entryDy=0;" edge="1" parent="1" source="g5JvH7xUqgwqa8n8HzxO-24" target="g5JvH7xUqgwqa8n8HzxO-1">
          <mxGeometry relative="1" as="geometry">
            <Array as="points">
              <mxPoint x="380" y="345" />
              <mxPoint x="380" y="-100" />
            </Array>
          </mxGeometry>
        </mxCell>
        <mxCell id="g5JvH7xUqgwqa8n8HzxO-24" value="VALOR 1 2 E 3 = VALOR 1 2 E 3&amp;nbsp;" style="rhombus;whiteSpace=wrap;html=1;" vertex="1" parent="1">
          <mxGeometry x="450" y="300" width="180" height="90" as="geometry" />
        </mxCell>
      </root>
    </mxGraphModel>
  </diagram>
  <diagram id="hLmoAkFa_WJQOQsR_zxJ" name="Página-2">
    <mxGraphModel grid="1" page="1" gridSize="10" guides="1" tooltips="1" connect="1" arrows="1" fold="1" pageScale="1" pageWidth="827" pageHeight="1169" math="0" shadow="0">
      <root>
        <mxCell id="0" />
        <mxCell id="1" parent="0" />
      </root>
    </mxGraphModel>
  </diagram>
</mxfile>
